#!OML:ASF H:\Terrain\Patient Classification 1\Takeo\Monday\TakeoMonday.ASF
:FULLY-SPECIFIED
:DEGREES
63
root 10.3522 16.6069 -26.5234 -1.91005 6.13559 4.45442
lowerback 9.24569 -2.46007 -4.64382
upperback 1.63843 -3.70666 0.336264
thorax -3.15386 -1.79534 3.38414
lowerneck -5.21704 0.702159 -7.74092
upperneck -6.65242 1.40387 3.76709
head -1.30229 0.84375 2.55625
rclavicle 7.7526e-015 -9.93923e-015
rhumerus -56.6706 2.0209 -87.0592
rradius 29.6101
rwrist -19.846
rhand -30.4398 17.8608
rfingers 7.12502
rthumb -3.74214 -12.0861
lclavicle 7.7526e-015 -9.93923e-015
lhumerus -19.0893 -14.7892 85.2836
lradius 82.4473
lwrist 27.1628
lhand -26.5398 12.9373
lfingers 7.12502
lthumb 0.0244165 42.917
rfemur -32.8294 2.77387 14.5319
rtibia 30.3924
rfoot -16.1958 -16.9018
rtoes -22.0646
lfemur 13.4121 -2.83916 -29.4183
ltibia 16.4358
lfoot -19.9322 3.20124
ltoes -11.5684
64
root 10.3541 16.5924 -26.2864 -1.8265 6.55364 4.55549
lowerback 9.12559 -2.60269 -4.59943
upperback 1.67517 -3.88928 0.204934
thorax -3.04482 -1.89047 3.23375
lowerneck -5.34312 0.635571 -7.04486
upperneck -6.67358 1.27739 3.31543
head -1.26633 0.7694 2.27521
rclavicle 2.05245e-014 -2.78299e-015
rhumerus -56.9949 1.5679 -87.243
rradius 29.0339
rwrist -19.5098
rhand -30.4589 18.7906
rfingers 7.12502
rthumb -3.76057 -11.156
lclavicle 2.05245e-014 -2.78299e-015
lhumerus -18.3301 -15.0464 84.66
lradius 83.4787
lwrist 27.0434
lhand -25.8386 12.7659
lfingers 7.12502
lthumb 0.701647 42.7445
rfemur -32.9347 2.84264 14.2044
rtibia 28.3996
rfoot -16.8603 -17.0852
rtoes -17.8194
lfemur 14.9735 -2.61643 -29.2724
ltibia 14.8802
lfoot -19.1732 2.63047
ltoes -12.775
65
root 10.356 16.57 -26.0448 -1.70393 7.00413 4.69989
lowerback 8.90091 -2.6991 -4.56441
upperback 1.77169 -4.00444 0.0670155
thorax -2.82225 -1.95615 3.06584
lowerneck -5.53849 0.551198 -6.63948
upperneck -6.95557 1.15491 3.11344
head -1.31014 0.705556 2.13427
rclavicle 1.21756e-014 6.75868e-015
rhumerus -57.2254 1.06438 -87.3143
rradius 28.5632
rwrist -19.0064
rhand -30.0101 18.3488
rfingers 7.12502
rthumb -3.32717 -11.605
lclavicle 1.21756e-014 6.75868e-015
lhumerus -17.5281 -15.4677 84.1694
lradius 84.4564
lwrist 27.3263
lhand -25.7298 12.1608
lfingers 7.12502
lthumb 0.806687 42.139
rfemur -33.1917 2.28208 14.1052
rtibia 26.8525
rfoot -17.529 -16.88
rtoes -15.1241
lfemur 16.5417 -2.66952 -29.2203
ltibia 13.3242
lfoot -18.4111 1.96025
ltoes -11.4994
66
root 10.3561 16.5505 -25.7999 -1.58873 7.44405 4.76451
lowerback 8.83616 -2.79494 -4.52702
upperback 1.74857 -4.12649 0.0379145
thorax -2.80499 -2.01718 3.02381
lowerneck -5.72383 0.55065 -6.6845
upperneck -7.0347 1.17672 3.27909
head -1.30715 0.71851 2.19842
rclavicle 1.42131e-014 7.55382e-015
rhumerus -57.5032 0.758839 -87.3551
rradius 28.014
rwrist -18.4483
rhand -29.0498 17.2835
rfingers 7.12502
rthumb -2.39979 -12.6828
lclavicle 1.42131e-014 7.55382e-015
lhumerus -17.0194 -15.8172 83.9229
lradius 85.4222
lwrist 27.9072
lhand -25.9947 11.7902
lfingers 7.12502
lthumb 0.550864 41.7693
rfemur -33.4423 1.40642 14.3075
rtibia 25.7253
rfoot -17.9178 -16.4714
rtoes -16.022
lfemur 17.9894 -2.91076 -29.172
ltibia 11.9726
lfoot -17.6479 1.67073
ltoes -11.1624
67
root 10.3528 16.5326 -25.5525 -1.41743 7.73292 4.75776
lowerback 8.69728 -2.86922 -4.42791
upperback 1.67882 -4.21228 0.00656138
thorax -2.80302 -2.05961 2.93856
lowerneck -6.13634 0.535779 -6.56414
upperneck -6.66011 1.17673 3.30989
head -1.11543 0.713836 2.18676
rclavicle -7.65321e-015 2.38542e-015
rhumerus -57.4796 0.207617 -87.2099
rradius 27.0497
rwrist -17.6702
rhand -28.4814 16.8949
rfingers 7.12502
rthumb -1.85085 -13.0768
lclavicle -7.65321e-015 2.38542e-015
lhumerus -16.7792 -16.06 83.7161
lradius 86.3423
lwrist 28.1839
lhand -26.0612 11.6671
lfingers 7.12502
lthumb 0.486655 41.6463
rfemur -33.728 0.494725 14.7444
rtibia 24.9612
rfoot -18.0328 -15.7833
rtoes -17.9068
lfemur 19.1944 -3.0501 -29.0465
ltibia 10.8858
lfoot -16.8214 1.61584
ltoes -11.3227
68
root 10.3472 16.5082 -25.3039 -1.35846 7.98445 4.74144
lowerback 8.63585 -2.99928 -4.42195
upperback 1.64954 -4.37958 0.089729
thorax -2.77966 -2.143 3.03442
lowerneck -6.3325 0.596436 -6.538
upperneck -6.73756 1.25981 3.06175
head -1.10894 0.758561 2.10098
rclavicle -3.87133e-014 -1.19271e-014
rhumerus -57.3141 -0.0754783 -86.8935
rradius 26.1079
rwrist -16.9002
rhand -28.3672 16.9211
rfingers 7.12502
rthumb -1.74056 -13.0516
lclavicle -3.87133e-014 -1.19271e-014
lhumerus -16.7399 -15.9215 83.6362
lradius 87.2277
lwrist 28.309
lhand -25.9859 11.3969
lfingers 7.12502
lthumb 0.559332 41.3759
rfemur -33.9173 -0.0173558 15.0608
rtibia 24.6018
rfoot -18.2662 -15.0499
rtoes -18.4943
lfemur 20.431 -3.24757 -28.907
ltibia 9.98535
lfoot -15.9239 1.54538
ltoes -11.3696
69
root 10.3438 16.4855 -25.0523 -1.50758 8.23963 4.71113
lowerback 8.74348 -3.14224 -4.50009
upperback 1.66151 -4.57547 0.269146
thorax -2.7896 -2.23956 3.28871
lowerneck -6.58254 0.671211 -6.49085
upperneck -6.63686 1.35273 2.5453
head -1.03417 0.806804 1.92333
rclavicle 1.59525e-014 -3.97569e-015
rhumerus -57.2876 0.0717233 -86.6926
rradius 25.4608
rwrist -16.4387
rhand -28.1258 16.6941
rfingers 7.12502
rthumb -1.50738 -13.2803
lclavicle 1.59525e-014 -3.97569e-015
lhumerus -16.813 -15.5584 83.6846
lradius 87.907
lwrist 28.6096
lhand -25.6291 10.9213
lfingers 7.12502
lthumb 0.903969 40.8991
rfemur -33.8508 -0.364966 15.299
rtibia 24.5557
rfoot -18.1752 -14.2335
rtoes -18.1935
lfemur 21.6956 -3.42374 -28.7605
ltibia 9.5826
lfoot -15.258 1.21438
ltoes -10.3251
